<svg xmlns="http://www.w3.org/2000/svg" width="54" height="54" viewBox="0 0 54 54"><defs><style>.a,.c{fill:#419945;}.b{fill:#fff;}.c{opacity:0.5;}</style></defs><g transform="translate(3 3)"><circle class="a" cx="22.141" cy="22.141" r="22.141" transform="translate(1.859 1.859)"/><path class="b" d="M24,48A24,24,0,1,1,48,24,24.027,24.027,0,0,1,24,48ZM24,3.718A20.282,20.282,0,1,0,44.282,24,20.3,20.3,0,0,0,24,3.718Z"/><path class="c" d="M27,54A27,27,0,1,1,54,27,27.031,27.031,0,0,1,27,54ZM27,4.183A22.817,22.817,0,1,0,49.817,27,22.842,22.842,0,0,0,27,4.183Z" transform="translate(-3 -3)"/><path class="b" d="M140.785,179.484a1.857,1.857,0,0,1-1.326-.556l-6.86-6.971a1.859,1.859,0,1,1,2.651-2.606l5.48,5.57,11.338-12.487a1.859,1.859,0,1,1,2.751,2.5l-12.66,13.943a1.859,1.859,0,0,1-1.338.61A.262.262,0,0,0,140.785,179.484Z" transform="translate(-119.685 -146.654)"/></g></svg>